<svg width="60" height="60" viewBox="0 0 60 60" fill="none" xmlns="http://www.w3.org/2000/svg">
<g clip-path="url(#clip0_2_5)">
<mask id="mask0_2_5" style="mask-type:luminance" maskUnits="userSpaceOnUse" x="0" y="0" width="60" height="60">
<path d="M0 0H60V60H0V0Z" fill="white"/>
</mask>
<g mask="url(#mask0_2_5)">
<path fill-rule="evenodd" clip-rule="evenodd" d="M60 30C60 46.5675 46.5675 60 30 60C13.4325 60 0 46.5675 0 30C0 13.4325 13.4325 0 30 0C46.5675 0 60 13.4325 60 30ZM31.075 22.1475C28.1583 23.3608 22.3267 25.8725 13.58 29.6825C12.16 30.2475 11.4158 30.8 11.3475 31.34C11.2325 32.255 12.3775 32.615 13.9325 33.1025L14.59 33.3125C16.1225 33.81 18.1825 34.3925 19.2525 34.415C20.2242 34.435 21.3092 34.035 22.5075 33.215C30.6775 27.6983 34.895 24.91 35.16 24.85C35.3475 24.8075 35.6075 24.7525 35.7825 24.91C35.9575 25.065 35.94 25.36 35.9225 25.44C35.8075 25.9225 31.3225 30.095 28.9975 32.255C28.2725 32.9275 27.76 33.405 27.655 33.515C27.4167 33.7567 27.1817 33.9892 26.95 34.2125C25.525 35.5825 24.46 36.6125 27.01 38.2925C28.235 39.1 29.215 39.7675 30.1925 40.4325C31.26 41.16 32.325 41.885 33.705 42.79C34.055 43.0233 34.3925 43.2567 34.7175 43.49C35.96 44.3775 37.0775 45.1725 38.4575 45.0475C39.2575 44.9725 40.0875 44.22 40.5075 41.9725C41.5 36.6575 43.455 25.1475 43.9075 20.4025C43.9375 20.0086 43.9207 19.6125 43.8575 19.2225C43.8226 18.9069 43.6688 18.6164 43.4275 18.41C43.07 18.1175 42.515 18.055 42.265 18.06C41.1375 18.08 39.4075 18.6825 31.075 22.1475Z" fill="black"/>
</g>
</g>
<defs>
<clipPath id="clip0_2_5">
<rect width="60" height="60" fill="white"/>
</clipPath>
</defs>
</svg>
